<svg width="19" height="16" viewBox="0 0 19 16" fill="none" xmlns="http://www.w3.org/2000/svg">
<path d="M4.01929 5.78101C3.80725 5.78101 3.62567 5.85832 3.47573 6.01178C3.32461 6.16525 3.24963 6.35151 3.24963 6.5694C3.24963 6.7873 3.32461 6.97356 3.47573 7.12702C3.62685 7.28048 3.80725 7.3578 4.01929 7.3578C4.23132 7.3578 4.41876 7.28048 4.57222 7.12702C4.72568 6.97356 4.80183 6.7873 4.80183 6.5694C4.80183 6.35151 4.72568 6.16525 4.57222 6.01178C4.41876 5.85832 4.23484 5.78101 4.01929 5.78101Z" fill="#4C83F6"/>
<path d="M10.5947 5.77539C10.3827 5.77539 10.2011 5.85154 10.0512 6.005C9.90005 6.15846 9.82507 6.34472 9.82507 6.56262C9.82507 6.78051 9.90122 6.96677 10.0512 7.12023C10.2011 7.2737 10.3827 7.34984 10.5947 7.34984C10.8068 7.34984 10.9942 7.27252 11.1477 7.12023C11.3011 6.96677 11.3773 6.78051 11.3773 6.56262C11.3773 6.34472 11.3011 6.15846 11.1477 6.005C10.9942 5.85154 10.8103 5.77539 10.5947 5.77539Z" fill="#4C83F6"/>
<path d="M14.9796 5.78101C14.7675 5.78101 14.586 5.85832 14.4348 6.01178C14.2849 6.16525 14.2087 6.35151 14.2087 6.5694C14.2087 6.7873 14.2849 6.97356 14.4348 7.12702C14.586 7.28048 14.7675 7.3578 14.9796 7.3578C15.1916 7.3578 15.379 7.28048 15.5325 7.12702C15.686 6.97356 15.7621 6.7873 15.7621 6.5694C15.7621 6.35151 15.6848 6.16525 15.5325 6.01178C15.379 5.85832 15.1951 5.78101 14.9796 5.78101Z" fill="#4C83F6"/>
<path d="M16.9288 0H2.07115C0.932487 0 0 0.932487 0 2.07115V10.4741C0 11.6127 0.932487 12.5452 2.07115 12.5452H7.90505C7.90505 12.5452 9.032 15.6203 9.44201 15.6203C9.85203 15.6203 11.0715 12.5452 11.0715 12.5452H16.9288C18.0687 12.5452 19 11.6127 19 10.4741V2.07115C19 0.932487 18.0675 0 16.9288 0ZM5.52229 7.75745C5.22825 8.08897 4.77724 8.22837 4.28522 8.22837C3.84124 8.22837 3.51674 8.09483 3.27659 7.91208H3.26253V8.14871H2.1473V3.28362H3.26253V5.14273H3.27659C3.57883 4.88501 3.97947 4.79715 4.45157 4.78192C4.85572 4.76786 5.27628 5.0209 5.52815 5.3126C5.77884 5.60312 5.96276 6.05882 5.96276 6.56255C5.96276 7.1108 5.8175 7.42475 5.52229 7.75627V7.75745ZM7.91676 8.18503H6.77927V5.17436C6.77927 4.47968 6.22985 4.38831 6.22985 4.38831V3.18404C6.22985 3.18404 7.82422 3.28128 7.91676 5.21302V8.1862V8.18503ZM12.38 7.26192C12.284 7.47981 12.1458 7.67427 11.9618 7.8453C11.7814 8.014 11.5741 8.14403 11.3386 8.23423C11.1043 8.32443 10.856 8.37012 10.5947 8.37012C10.3335 8.37012 10.0945 8.32443 9.86257 8.23423C9.62945 8.14403 9.4221 8.014 9.23935 7.8453C9.05074 7.66724 8.909 7.47161 8.81176 7.25489C8.7157 7.03934 8.6665 6.8109 8.6665 6.56841C8.6665 6.32591 8.71453 6.09748 8.81176 5.88193C8.909 5.66638 9.05074 5.46957 9.23935 5.29151C9.42327 5.12282 9.63062 4.99279 9.86257 4.90258C10.0945 4.81238 10.3382 4.76787 10.5947 4.76787C10.8513 4.76787 11.1032 4.81238 11.3386 4.90258C11.5729 4.99279 11.7803 5.12282 11.9618 5.29151C12.1458 5.46254 12.284 5.65701 12.38 5.8749C12.4749 6.09279 12.523 6.32357 12.523 6.56841C12.523 6.81324 12.4749 7.04285 12.38 7.26074V7.26192ZM16.8539 7.74456C16.8539 8.59856 16.6922 9.11986 16.3103 9.48184C15.857 9.91177 15.2115 9.94223 14.6679 9.86491V8.98163C15.1213 9.02731 15.7457 8.72859 15.7445 8.14051V7.91442H15.7304C15.4762 8.26586 15.1049 8.39355 14.6105 8.39355C14.1525 8.39355 13.7553 8.22486 13.4871 7.90974C13.2176 7.59461 13.0841 7.17288 13.0841 6.64338C13.0841 6.04945 13.234 5.57852 13.5339 5.22942C13.8327 4.88033 14.2603 4.71749 14.7488 4.71749C15.1869 4.71749 15.4622 4.82292 15.7316 5.06893H15.7457V4.80301H16.8539V7.74573V7.74456Z" fill="#4C83F6"/>
</svg>
