<svg width="21" height="15" viewBox="0 0 21 15" fill="none" xmlns="http://www.w3.org/2000/svg">
<path d="M10.8177 14.9987C9.37341 14.9742 8.24221 14.9755 7.11227 14.9317C5.88765 14.8841 4.66429 14.8068 3.44219 14.7205C3.04198 14.6921 2.63419 14.6355 2.25166 14.5208C1.23408 14.2156 0.617982 13.5032 0.385683 12.4509C0.200095 11.6098 0.119295 10.7545 0.080158 9.8953C0.0372331 8.97046 -0.00569189 8.04303 0.000620607 7.11819C0.0119831 5.73864 0.075108 4.36039 0.290995 2.99501C0.386945 2.38446 0.54097 1.79838 0.943707 1.31019C1.42472 0.72669 2.04334 0.405956 2.77307 0.3364C3.86765 0.232064 4.9635 0.118713 6.06061 0.0852223C8.06041 0.0246822 10.0589 -0.00752003 12.0575 0.00149659C13.5346 0.00793703 15.013 0.0826462 16.4888 0.157355C17.1668 0.192134 17.8498 0.260402 18.5164 0.390499C19.6868 0.621067 20.4114 1.37589 20.6336 2.56479C20.7877 3.39175 20.8924 4.23416 20.9354 5.07399C20.9972 6.29639 21.0099 7.52393 20.9934 8.74762C20.977 9.91978 20.8874 11.0907 20.6791 12.2486C20.5263 13.0962 20.1425 13.7815 19.4115 14.2426C18.9936 14.5067 18.5278 14.6226 18.048 14.6638C17.0279 14.7514 16.0078 14.8441 14.9852 14.8866C13.4929 14.9485 11.9994 14.9691 10.8202 15L10.8177 14.9987ZM13.8957 7.484C12.0537 6.39943 10.2395 5.33161 8.41138 4.25605V10.7132C10.2407 9.6364 12.0512 8.56986 13.8957 7.48529V7.484Z" fill="#4C83F6"/>
</svg>
