<svg width="166" height="28" viewBox="0 0 166 28" fill="none" xmlns="http://www.w3.org/2000/svg">
<path d="M23.0393 10.3384V11.9393C23.0393 18.8927 18.6911 22.7391 12.3372 22.7391C4.93612 22.7391 0 17.7562 0 11.4169C0 5.07754 4.50436 0.0305176 12.6465 0.0305176C16.5936 0.0305176 19.1535 0.953158 21.2204 2.27602V5.63052C19.2147 4.0602 16.2231 2.9237 12.6771 2.9237C6.23139 2.9237 3.20909 6.61426 3.20909 11.3222C3.20909 16.3692 6.78563 19.907 12.3985 19.907C16.9641 19.907 19.8608 17.414 20.0783 13.0452H6.3845L7.0306 10.3384H23.0362H23.0393Z" fill="#2354F9"/>
<path d="M37.4373 5.04707V8.0319C36.6963 7.44838 35.7409 7.13981 34.5681 7.13981C32.1001 7.13981 30.1893 9.17146 30.1587 12.9567V22.1587H27.1976V4.6163H30.1587V8.67959C31.0528 5.75585 32.8717 4.31079 35.0611 4.31079C36.0165 4.31079 36.7882 4.55825 37.4373 5.05013" fill="#2354F9"/>
<path d="M56.4346 13.6929H42.0642C42.3091 17.5698 45.0252 19.8764 49.2203 19.8764C51.9027 19.8764 54.3401 18.7705 55.8498 17.4446V20.2461C54.0921 21.6912 51.4403 22.6169 48.7885 22.6169C43.0226 22.6169 39.0112 18.7705 39.0112 13.1705C39.0112 8.15403 42.4653 3.93799 48.2312 3.93799C53.3205 3.93799 56.4346 6.86172 56.4346 11.9698V13.6929V13.6929ZM42.156 11.4474H53.6297C53.4766 8.37094 51.471 6.67841 48.1088 6.67841C44.7466 6.67841 42.649 8.67951 42.156 11.4474Z" fill="#2354F9"/>
<path d="M76.7885 13.6929H62.415C62.663 17.5698 65.376 19.8764 69.5711 19.8764C72.2535 19.8764 74.691 18.7705 76.2006 17.4446V20.2461C74.443 21.6912 71.7912 22.6169 69.1394 22.6169C63.3704 22.6169 59.3621 18.7705 59.3621 13.1705C59.3621 8.15403 62.8161 3.93799 68.5821 3.93799C73.6713 3.93799 76.7855 6.86172 76.7855 11.9698V13.6929H76.7885ZM62.5099 11.4474H73.9836C73.8305 8.37094 71.8248 6.67841 68.4626 6.67841C65.1005 6.67841 63.0029 8.67951 62.5099 11.4474Z" fill="#2354F9"/>
<path d="M81.0417 0V22.1556H84.0028V12.8925L93.2534 22.1556H97.3567L87.1782 12.309L96.7412 4.61626H92.5461L84.0028 11.8782V0H81.0417Z" fill="#2354F9"/>
<path d="M123.568 0V22.1556H120.638V18.1259C119.404 20.6189 117.061 22.62 113.39 22.62C108.518 22.62 105.033 18.6514 105.033 13.3264C105.033 7.6958 108.889 3.94108 113.791 3.94108C117.028 3.94108 119.312 5.60306 120.638 8.18767V0H123.568ZM120.73 13.14C120.73 9.41582 118.262 6.6479 114.315 6.6479C110.368 6.6479 108.053 9.44943 108.053 13.2622C108.053 17.075 110.46 19.9101 114.22 19.9101C118.167 19.9101 120.727 16.9558 120.727 13.14" fill="#2354F9"/>
<path d="M143.242 11.8782V22.1556H140.312V19.6015C139.109 21.7248 136.889 22.7391 134.237 22.7391C130.443 22.7391 127.791 20.185 127.791 16.8916C127.791 13.5982 130.443 11.2 134.359 11.2C137.072 11.2 139.17 12.1837 140.312 13.8762V12.2448C140.312 8.49009 137.844 6.67536 134.577 6.67536C132.078 6.67536 130.29 7.5369 128.78 9.19887V6.15294C130.228 4.98283 132.173 3.93799 135.134 3.93799C140.036 3.93799 143.245 6.73952 143.245 11.8782M140.315 16.7694C140.315 14.86 138.401 13.4149 135.474 13.4149C132.546 13.4149 130.786 14.86 130.786 16.8305C130.786 18.8011 132.452 20.3072 135.351 20.3072C138.251 20.3072 140.318 18.7369 140.318 16.7694" fill="#2354F9"/>
<path d="M161.223 4.61621L154.777 17.6309L148.855 4.61621H145.677L153.173 20.738L149.287 28H152.524L164.368 4.61621H161.223Z" fill="#2354F9"/>
<path d="M166 21.181C166 22.2778 165.081 23.1393 163.844 23.1393C162.607 23.1393 161.686 22.2778 161.686 21.181C161.686 20.0842 162.604 19.2166 163.844 19.2166C165.084 19.2166 166 20.0842 166 21.181ZM165.706 21.181C165.706 20.2339 164.931 19.4946 163.844 19.4946C162.757 19.4946 161.983 20.2339 161.983 21.181C161.983 22.1281 162.763 22.8613 163.844 22.8613C164.925 22.8613 165.706 22.125 165.706 21.181ZM164.062 21.3887L164.791 22.1556H164.276L163.48 21.2696V22.1556H163.091V20.2064H164.089C164.484 20.2064 164.76 20.4447 164.76 20.7838C164.76 21.1504 164.493 21.3857 164.068 21.3857H164.062V21.3887ZM163.483 21.1107H163.951C164.224 21.1107 164.347 21.0099 164.347 20.8174C164.347 20.6341 164.224 20.5455 163.991 20.5455H163.483V21.1138V21.1107Z" fill="#2354F9"/>
</svg>
